<svg width="893" height="753" viewBox="0 0 893 753" fill="none" xmlns="http://www.w3.org/2000/svg">
<path fill-rule="evenodd" clip-rule="evenodd" d="M17.7131 725.373C1.79183 706.395 -1.8927 678.573 5.21823 644.394C6.25493 639.411 7.52077 634.294 9.01085 629.053C9.05933 629.138 9.10803 629.223 9.15694 629.307C21.0433 649.899 44.6708 662.323 77.066 667.243C109.467 672.165 150.724 669.598 198.019 660.127C291.567 641.395 408.849 595.635 528.193 527.199C531.15 526.603 534.028 525.951 536.823 525.244C426.02 616.42 313.995 684.382 221.206 721.057C173.081 740.078 130.157 750.673 95.276 751.742C60.3875 752.811 33.6345 744.351 17.7131 725.373ZM539.122 524.645C427.718 616.56 314.947 685.081 221.573 721.987C173.391 741.031 130.347 751.668 95.3066 752.742C60.273 753.815 33.1498 745.329 16.9472 726.016C0.74457 706.702 -2.90119 678.512 4.2393 644.19C5.34444 638.878 6.7083 633.417 8.32484 627.817C-2.67254 607.435 -1.38641 581.306 10.2645 551.516C10.5216 550.859 10.7839 550.199 11.0511 549.538C8.21713 545.437 5.9397 541.065 4.24942 536.42C-2.39793 518.153 0.62166 497.278 11.8332 474.933C6.5482 467.553 3.06931 459.616 1.57623 451.147C-0.781226 437.774 1.96727 423.956 9.19069 410.025C7.68169 406.146 6.34791 402.107 5.2103 397.93C2.28194 391.007 0.759707 383.91 0.759707 376.676C0.759707 375.126 0.829598 373.583 0.968239 372.046C0.521196 364.408 0.801749 356.991 1.74111 349.955C0.892617 341.963 0.598296 334.231 0.841171 326.873C0.627213 323.042 0.843168 319.239 1.50711 315.472C1.63935 314.722 1.78879 313.977 1.95527 313.236C1.64028 310.63 1.38733 308.062 1.19672 305.536C0.765772 299.826 0.653361 294.327 0.86421 289.082C0.644559 285.457 0.78112 281.91 1.28791 278.452C0.853699 273.876 0.685917 269.471 0.791776 265.258C0.737868 263.59 0.750101 261.948 0.82961 260.332C0.242084 245.728 3.64508 233.239 11.5593 223.806C20.3776 213.294 33.9025 207.641 50.7302 206.362C62.1516 205.494 75.1137 206.639 89.2022 209.658C97.6046 210.06 106.455 210.958 115.688 212.34C131.15 214.655 147.692 218.329 165.001 223.316C188.473 225.508 213.616 229.495 239.844 235.283C261.458 235.88 283.965 237.395 307.114 239.873C309.576 239.68 312.047 239.494 314.526 239.317C315.194 238.755 315.862 238.193 316.532 237.631C431.396 141.228 548.426 69.4632 644.795 31.3731C692.977 12.3291 736.021 1.69209 771.062 0.618398C806.095 -0.455167 833.219 8.03118 849.421 27.3446C864.565 45.3961 868.74 71.2023 863.39 102.522C872.194 108.311 879.177 115.468 884.126 124.041C896.012 144.633 894.955 171.311 883.018 201.832C881.857 204.801 880.592 207.808 879.226 210.849C880.218 212.823 881.094 214.851 881.852 216.934C889.492 237.93 884.362 262.371 868.7 288.531C862.761 298.451 855.302 308.628 846.437 318.972C844.464 334.394 836.337 350.207 822.959 365.934C810.03 381.132 792.172 396.28 770.147 410.959C765.22 418.003 758.813 424.826 751.062 431.382C732.166 447.367 705.236 461.814 672.114 474.085C668.271 477.19 664.006 480.142 659.345 482.939C639.055 495.111 611.2 504.359 577.783 510.348C575.376 510.779 572.94 511.193 570.477 511.591C565.797 514.539 560.555 517.167 554.8 519.475C549.936 521.425 544.701 523.148 539.122 524.645ZM862.476 101.93C867.69 70.9607 863.469 45.6461 848.655 27.9875C832.734 9.00933 805.981 0.548899 771.092 1.61801C736.211 2.68683 693.287 13.2817 645.163 32.3032C548.918 70.3441 431.98 142.044 317.175 238.397C316.857 238.664 316.539 238.931 316.222 239.197C325.865 238.525 335.636 237.979 345.519 237.566C350.667 234.511 355.856 231.473 361.084 228.454C481.806 158.741 600.669 112.162 695.264 93.2207C742.559 83.7505 783.815 81.1829 816.217 86.1047C834.662 88.9065 850.265 94.1406 862.476 101.93ZM313.225 240.413C312.984 240.431 312.743 240.449 312.503 240.466C312.696 240.488 312.89 240.51 313.084 240.532C313.131 240.493 313.178 240.453 313.225 240.413ZM314.45 240.689C314.607 240.556 314.764 240.424 314.921 240.292C324.396 239.618 333.995 239.067 343.705 238.644C343.108 239 342.511 239.355 341.915 239.711C337.775 240.641 333.657 241.589 329.564 242.555C324.499 241.888 319.46 241.266 314.45 240.689ZM312.034 241.42C310.386 241.234 308.742 241.053 307.1 240.878C296.196 241.737 285.463 242.759 274.923 243.937C282.478 245.994 290.097 248.192 297.768 250.53C299.485 250.073 301.207 249.619 302.934 249.169C305.95 246.581 308.983 243.998 312.034 241.42ZM305.14 248.595C307.879 246.251 310.633 243.911 313.4 241.575C317.851 242.083 322.325 242.626 326.82 243.206C319.515 244.947 312.286 246.745 305.14 248.595ZM301.202 250.656C300.66 250.798 300.119 250.941 299.579 251.084C299.855 251.169 300.132 251.254 300.408 251.339C300.673 251.112 300.937 250.884 301.202 250.656ZM301.536 251.688C302.159 251.151 302.784 250.614 303.41 250.078C312.027 247.83 320.765 245.659 329.615 243.57C331.214 243.781 332.816 243.997 334.42 244.217C330.629 246.511 326.86 248.814 323.116 251.125C319.78 252.538 316.462 253.959 313.161 255.389C309.275 254.12 305.399 252.886 301.536 251.688ZM299.514 252.11C298.925 251.929 298.337 251.749 297.75 251.57C285.61 254.803 273.717 258.189 262.096 261.713C267.643 264.47 273.208 267.332 278.784 270.297C285.597 264.217 292.508 258.153 299.514 252.11ZM280.547 270.065C287.154 264.179 293.853 258.309 300.641 252.458C304.342 253.603 308.055 254.78 311.777 255.99C301.175 260.598 290.76 265.294 280.547 270.065ZM277.989 271.007C277.787 271.187 277.585 271.367 277.384 271.548C265.297 277.236 253.496 283.029 242.005 288.908C235.618 283.902 229.212 279.099 222.806 274.506C235.072 270.224 247.716 266.094 260.701 262.137C266.446 264.982 272.211 267.939 277.989 271.007ZM274.777 273.885C266.626 281.208 258.618 288.552 250.759 295.909C248.134 293.768 245.504 291.661 242.871 289.589C253.259 284.279 263.9 279.039 274.777 273.885ZM251.54 296.547C260.164 288.476 268.967 280.42 277.941 272.391C278.41 272.17 278.879 271.95 279.348 271.73C281.421 272.837 283.496 273.958 285.572 275.093C274.355 282.499 263.387 289.968 252.682 297.484C252.301 297.171 251.921 296.859 251.54 296.547ZM250.022 296.599C247.317 294.393 244.606 292.223 241.891 290.09C229.136 296.625 216.764 303.267 204.806 309.989C207.699 313.243 210.569 316.566 213.412 319.955C214.474 321.22 215.525 322.488 216.567 323.757C223.644 318.42 230.859 313.094 238.208 307.788C242.108 304.056 246.046 300.326 250.022 296.599ZM244.09 303.566C246.316 301.455 248.554 299.345 250.804 297.237C251.147 297.517 251.49 297.799 251.833 298.08C249.236 299.906 246.655 301.735 244.09 303.566ZM232.96 312.835C227.634 316.726 222.38 320.625 217.201 324.531C217.767 325.224 218.33 325.916 218.889 326.609C223.52 322.017 228.21 317.425 232.96 312.835ZM219.52 327.392C225.851 321.112 232.295 314.833 238.85 308.558C243.394 305.278 247.989 302.005 252.633 298.74C253.902 299.786 255.168 300.84 256.434 301.902C306.588 343.995 344.924 390.495 366.37 431.63C377.093 452.199 383.581 471.403 385.227 488.03C386.088 496.718 385.625 504.691 383.761 511.785C364.93 509.638 345.693 506.856 326.181 503.415C314.014 501.269 302.034 498.918 290.27 496.38C290.313 496.03 290.353 495.678 290.392 495.324C291.965 480.773 289.821 463.458 284.311 444.514C273.938 408.844 251.61 367.312 219.52 327.392ZM218.176 327.318C217.588 326.589 216.997 325.861 216.403 325.134C204.338 334.249 192.68 343.399 181.455 352.554C182.864 355.303 184.223 358.05 185.533 360.793C196.043 349.655 206.93 338.486 218.176 327.318ZM185.994 361.762C196.555 350.563 207.499 339.332 218.807 328.101C250.797 367.915 273.029 409.3 283.351 444.793C288.838 463.658 290.953 480.835 289.398 495.216C289.363 495.535 289.327 495.852 289.289 496.168C282.049 494.598 274.892 492.957 267.824 491.249C264.68 490.146 261.53 489.021 258.376 487.872C241.978 481.903 226.078 475.54 210.766 468.86C211.288 462.264 211.264 455.217 210.706 447.817C208.774 422.217 200.437 392.265 185.994 361.762ZM184.798 361.574C183.471 358.786 182.092 355.994 180.663 353.201C169.443 362.369 158.659 371.541 148.337 380.686C149.676 386.632 150.729 392.502 151.5 398.253C162.123 386.092 173.231 373.852 184.798 361.574ZM151.672 399.575C162.381 387.299 173.584 374.941 185.257 362.544C199.554 392.832 207.795 422.532 209.709 447.892C210.255 455.131 210.286 462.007 209.797 468.437C189.374 459.496 170.003 449.993 151.897 440.111C153.557 427.825 153.515 414.09 151.672 399.575ZM150.623 399.257C149.87 393.432 148.825 387.48 147.482 381.444C135.941 391.693 124.982 401.907 114.644 412.043C114.258 413.788 113.829 415.503 113.358 417.185C113.631 417.4 113.904 417.614 114.177 417.828C118.601 420.662 123.131 423.478 127.763 426.271C135.107 417.322 142.731 408.312 150.623 399.257ZM128.629 426.792C135.756 418.11 143.146 409.37 150.791 400.587C152.496 414.546 152.52 427.752 150.957 439.597C143.28 435.392 135.832 431.119 128.629 426.792ZM127.123 427.052C125.563 426.111 124.015 425.168 122.478 424.222C123.906 425.302 125.344 426.38 126.792 427.456C126.902 427.321 127.012 427.187 127.123 427.052ZM127.596 428.052C127.727 427.893 127.857 427.733 127.988 427.574C135.347 431.996 142.96 436.363 150.812 440.658C150.752 441.083 150.69 441.507 150.626 441.929C150.515 442.657 150.399 443.381 150.276 444.098C142.472 438.822 134.907 433.466 127.596 428.052ZM126.158 428.231C121.883 425.054 117.695 421.857 113.598 418.645C113.412 418.526 113.227 418.407 113.042 418.288C111.967 421.954 110.692 425.456 109.23 428.765C108.866 429.589 108.491 430.401 108.104 431.201C110.364 433.312 112.655 435.417 114.975 437.514C115.853 437.949 116.734 438.383 117.62 438.815C120.421 435.298 123.268 431.769 126.158 428.231ZM118.54 439.264C121.305 435.796 124.112 432.316 126.962 428.827C134.412 434.345 142.126 439.802 150.085 445.176C149.613 447.778 149.06 450.302 148.426 452.742C138.018 448.385 128.042 443.884 118.54 439.264ZM117.867 440.11C117.879 440.095 117.891 440.08 117.902 440.066C127.52 444.747 137.623 449.306 148.167 453.718C147.29 456.949 146.271 460.029 145.111 462.94C140.385 459.219 135.67 455.388 130.975 451.448C126.511 447.701 122.141 443.919 117.867 440.11ZM116.497 440.227C115.798 439.602 115.101 438.976 114.408 438.349C111.73 437.021 109.091 435.683 106.492 434.337C103.126 440.513 99.0305 445.846 94.3111 450.084C96.9692 452.943 99.6432 455.744 102.33 458.485C106.914 452.436 111.638 446.348 116.497 440.227ZM103.038 459.206C107.635 453.139 112.371 447.034 117.244 440.894C121.512 444.698 125.876 448.473 130.333 452.214C135.11 456.223 139.909 460.121 144.72 463.904C141.932 470.63 138.378 476.423 134.097 481.071C129.865 479.74 125.714 478.377 121.648 476.983C115.406 471.385 109.19 465.452 103.038 459.206ZM101.719 459.291C98.9853 456.503 96.2643 453.654 93.5599 450.745C88.9627 454.705 83.7942 457.642 78.1471 459.334C83.7617 462.04 89.6452 464.671 95.7837 467.222C97.7354 464.586 99.7141 461.942 101.719 459.291ZM96.736 467.616C98.6086 465.089 100.506 462.554 102.428 460.011C107.984 465.65 113.594 471.033 119.227 476.146C118.036 475.73 116.852 475.312 115.676 474.891C109.125 472.547 102.807 470.121 96.736 467.616ZM95.1712 468.05C88.727 465.367 82.5613 462.595 76.6905 459.739C75.7111 459.992 74.718 460.208 73.7115 460.385C72.8644 460.534 72.017 460.655 71.1696 460.748C76.5258 467.128 81.9951 473.078 87.5199 478.56C90.0216 475.072 92.5723 471.568 95.1712 468.05ZM88.24 479.272C90.8158 475.679 93.4437 472.07 96.1228 468.445C102.281 470.99 108.692 473.454 115.339 475.833C117.25 476.517 119.181 477.193 121.131 477.863C123.965 480.402 126.804 482.872 129.644 485.272C126.342 487.962 122.696 490.066 118.718 491.514C114.147 493.178 109.353 493.897 104.422 493.74C99.0133 489.383 93.6017 484.548 88.24 479.272ZM86.93 479.384C81.191 473.697 75.5133 467.508 69.9602 460.862C69.6709 460.884 69.3816 460.903 69.0924 460.92C65.9874 464.612 62.9803 468.284 60.073 471.931C60.8491 472.651 61.628 473.355 62.4093 474.043C68.64 479.53 75.0134 483.973 81.3716 487.243C83.1964 484.632 85.0492 482.013 86.93 479.384ZM82.273 487.699C84.0393 485.173 85.8319 482.638 87.6507 480.095C92.6455 485.004 97.6847 489.533 102.727 493.652C96.071 493.174 89.1855 491.134 82.273 487.699ZM80.7948 488.069C74.3833 484.757 67.9811 480.282 61.7484 474.794C60.9793 474.117 60.2126 473.424 59.4486 472.716C52.3821 481.617 45.9121 490.374 40.0681 498.953C41.8521 500.073 43.6935 501.172 45.5913 502.25C51.5002 505.609 57.9516 508.767 64.9115 511.719C69.9368 503.932 75.2341 496.045 80.7948 488.069ZM65.8472 512.113C70.8616 504.347 76.147 496.481 81.6949 488.527C89.2334 492.292 96.7743 494.441 104.057 494.73C107.768 497.709 111.478 500.464 115.171 502.985C138.423 518.86 161.114 525.515 178.976 519.839C182.205 521.628 185.406 523.304 188.573 524.864C206.27 533.581 222.945 538.699 237.546 539.676C248.609 540.416 258.499 538.778 266.733 534.509C270.369 535.826 273.958 537.044 277.496 538.162C280.837 539.219 284.132 540.186 287.378 541.063C234.166 542.732 185.543 539.964 144.085 533.181C113.848 528.234 87.4392 521.154 65.8472 512.113ZM64.3618 512.572C57.4291 509.625 50.9963 506.473 45.0971 503.12C43.1768 502.028 41.3127 500.915 39.5059 499.781C27.7373 517.155 18.5472 533.793 12.1822 549.41C17.2013 556.535 23.9542 562.839 32.2918 568.32C39.2681 554.404 47.3403 539.984 56.4466 525.157C59.0037 520.993 61.6426 516.797 64.3618 512.572ZM33.1355 568.868C40.1075 554.953 48.1819 540.524 57.2985 525.68C59.8816 521.475 62.5481 517.236 65.2968 512.966C87.0163 522.082 113.565 529.201 143.924 534.168C186.324 541.105 236.188 543.849 290.771 541.951C307.749 546.252 323.275 548.006 336.679 546.987C347.444 546.169 356.857 543.561 364.551 539.036C368.511 539.776 372.41 540.433 376.242 541.007C402.771 544.978 426.15 544.951 444.791 540.665C453.381 538.69 460.975 535.807 467.409 531.989C471.179 532.05 474.889 532.057 478.535 532.01C480.201 531.988 481.854 531.955 483.493 531.911C367.663 572.652 257.53 593.963 171.852 595.518C127.263 596.327 89.326 591.785 60.6639 581.866C50.202 578.245 40.986 573.912 33.1355 568.868ZM31.8417 569.22C23.5727 563.799 16.8178 557.565 11.7376 550.511C11.5545 550.968 11.3739 551.425 11.1957 551.88C-0.228421 581.09 -1.55723 606.55 8.72722 626.438C13.9721 608.648 21.7409 589.473 31.8417 569.22ZM9.39966 627.7C14.618 609.733 22.4449 590.315 32.6861 569.767C40.6 574.84 49.8622 579.186 60.3369 582.811C89.1513 592.783 127.217 597.328 171.87 596.518C258.413 594.947 369.805 573.255 486.796 531.805C500.632 531.295 513.479 529.956 525.148 527.789C406.753 595.377 290.575 640.574 197.823 659.147C150.589 668.605 109.459 671.152 77.2162 666.255C44.9673 661.356 21.6935 649.025 10.0229 628.807C9.81101 628.44 9.60325 628.071 9.39966 627.7ZM862.293 103.001C861.949 104.967 861.568 106.956 861.15 108.967C856.969 129.066 849.059 151.334 837.742 175.239C833.949 173.558 829.954 171.993 825.764 170.543C796.95 160.572 758.884 156.026 714.232 156.836C624.922 158.457 509.148 181.506 388.069 225.585C379.275 228.786 370.574 232.054 361.972 235.385C358.965 236.007 355.969 236.638 352.984 237.279C351.194 237.342 349.408 237.409 347.626 237.48C352.246 234.746 356.899 232.025 361.584 229.32C482.238 159.646 600.998 113.116 695.46 94.2013C742.694 84.7434 783.824 82.1957 816.066 87.0934C834.609 89.91 850.184 95.1836 862.293 103.001ZM838.655 175.648C849.994 151.692 857.93 129.356 862.129 109.17C862.519 107.294 862.877 105.437 863.203 103.598C871.723 109.271 878.469 116.241 883.26 124.541C894.93 144.759 893.97 171.084 882.087 201.468C881.024 204.184 879.875 206.933 878.639 209.712C871.075 195.455 857.389 184.115 838.655 175.648ZM837.313 176.143C833.556 174.479 829.595 172.927 825.437 171.488C796.775 161.569 758.838 157.027 714.25 157.836C625.077 159.455 509.415 182.474 388.411 226.524C381.52 229.033 374.687 231.583 367.913 234.171C377.736 232.189 387.673 230.31 397.714 228.539C514.221 207.992 622.632 205.917 703.735 219.186C741.156 225.308 772.788 234.701 796.722 247.071C801.028 240.536 805.145 234.07 809.07 227.68C820.024 209.845 829.473 192.608 837.313 176.143ZM797.614 247.535C801.905 241.021 806.009 234.574 809.922 228.203C820.894 210.339 830.365 193.063 838.226 176.551C857.137 185.095 870.763 196.539 878.118 210.875C868.64 231.852 854.315 254.531 835.708 278.257C828.145 267.762 816.924 258.397 802.562 250.235C800.952 249.32 799.303 248.42 797.614 247.535ZM796.169 247.91C772.373 235.631 740.888 226.278 703.574 220.173C622.609 206.926 514.314 208.991 397.888 229.524C385.855 231.646 373.971 233.924 362.256 236.347C361.656 236.579 361.057 236.812 360.458 237.044C370.643 236.759 380.937 236.614 391.326 236.614C499.082 236.614 596.658 252.24 667.313 277.52C699.326 288.974 725.835 302.418 745.261 317.304C764.309 293.587 781.343 270.348 796.169 247.91ZM746.053 317.915C765.139 294.149 782.207 270.861 797.061 248.374C798.77 249.269 800.44 250.179 802.068 251.104C816.458 259.283 827.609 268.637 835.064 279.076C829.025 286.744 822.541 294.52 815.629 302.383C802.839 316.935 788.59 331.78 773.005 346.777C767.804 338.174 760.41 329.879 751.062 321.971C749.45 320.608 747.78 319.255 746.053 317.915ZM744.635 318.084C725.321 303.289 698.924 289.892 666.976 278.462C596.455 253.23 498.998 237.614 391.326 237.614C379.993 237.614 368.773 237.787 357.686 238.126C352.48 240.163 347.312 242.223 342.183 244.304C351.724 245.691 361.35 247.238 371.042 248.948C466.774 265.831 550.954 295.367 609.667 329.488C639.021 346.547 662.034 364.767 676.938 383.145C678.75 385.38 680.443 387.618 682.013 389.857C704.74 365.673 725.678 341.644 744.635 318.084ZM682.596 390.697C705.401 366.438 726.409 342.332 745.427 318.695C747.148 320.03 748.811 321.377 750.416 322.734C759.778 330.654 767.13 338.932 772.266 347.488C749.072 369.755 722.941 392.354 694.273 414.83C692.082 406.83 688.136 398.757 682.596 390.697ZM681.313 390.601C679.724 388.326 678.006 386.05 676.161 383.775C661.361 365.524 638.46 347.377 609.164 330.352C550.578 296.305 466.516 266.801 370.868 249.932C360.613 248.124 350.434 246.497 340.349 245.049C334.71 247.346 329.119 249.669 323.576 252.016C321.181 253.494 318.796 254.976 316.421 256.461C324.126 259.013 331.873 261.704 339.648 264.534C421.083 294.18 490.28 333.532 536.323 373.207C559.343 393.043 576.596 412.978 586.689 431.841C594.583 446.594 598.112 460.724 596.56 473.643C626.953 446.078 655.3 418.241 681.313 390.601ZM596.35 475.183C627.037 447.392 655.651 419.319 681.895 391.442C687.415 399.507 691.301 407.554 693.418 415.5C662.71 439.529 629.107 463.411 593.097 486.588C593.442 485.785 593.764 484.972 594.064 484.147C595.124 481.235 595.883 478.244 596.35 475.183ZM595.413 474.682C597.294 461.716 593.879 447.398 585.807 432.313C575.793 413.597 558.637 393.755 535.67 373.965C489.741 334.387 420.658 295.09 339.306 265.474C331.275 262.55 323.275 259.776 315.32 257.15C305.892 263.056 296.618 269.014 287.508 275.014C291.815 277.383 296.127 279.813 300.439 282.303C366.358 320.369 419.984 365.363 453.391 407.353C470.094 428.347 481.76 448.611 487.369 466.901C492.54 483.759 492.576 498.981 486.617 511.542C502.188 510.143 517.387 508.408 532.15 506.362C545.615 503.006 558.801 499.462 571.678 495.748C579.72 488.75 587.633 481.725 595.413 474.682ZM573.957 495.088C581.128 488.832 588.195 482.555 595.156 476.263C594.694 478.834 594.018 481.349 593.124 483.805C592.657 485.089 592.134 486.346 591.556 487.578C589.713 488.761 587.864 489.942 586.008 491.121C585.114 491.521 584.219 491.92 583.323 492.318C580.22 493.251 577.098 494.175 573.957 495.088ZM569.889 497.303C560.604 499.961 551.161 502.53 541.57 505.004C548.294 503.999 554.921 502.928 561.447 501.794C563.588 500.89 565.722 499.982 567.848 499.07C568.529 498.481 569.21 497.892 569.889 497.303ZM570.881 497.766C571.31 497.393 571.739 497.021 572.167 496.648C573.47 496.272 574.769 495.894 576.065 495.515C574.342 496.267 572.614 497.018 570.881 497.766ZM567.462 500.726C567.77 500.46 568.078 500.194 568.385 499.928C572.35 498.228 576.29 496.515 580.203 494.791C577.501 496.491 574.785 498.187 572.057 499.878C570.532 500.164 569 500.446 567.462 500.726ZM564.039 502.355C563.271 502.491 562.502 502.626 561.731 502.76C551.636 507.023 541.38 511.205 530.975 515.298C537.364 514.778 543.619 514.162 549.729 513.45C551.182 512.584 552.631 511.717 554.077 510.849C557.418 508.023 560.739 505.191 564.039 502.355ZM559.417 507.627C561.611 505.757 563.796 503.885 565.972 502.011C567.221 501.787 568.466 501.56 569.707 501.332C566.296 503.437 562.866 505.536 559.417 507.627ZM553.013 513.056C553.563 512.593 554.112 512.129 554.661 511.665C560.639 508.074 566.561 504.46 572.425 500.826C576.482 500.064 580.496 499.278 584.467 498.467C580.589 502.99 575.781 507.047 570.116 510.636C564.557 511.53 558.853 512.337 553.013 513.056ZM551.616 514.234C557.16 513.568 562.585 512.823 567.882 512.001C563.797 514.409 559.303 516.591 554.427 518.547C550.229 520.23 545.75 521.744 541.006 523.088C543.951 520.651 546.894 518.198 549.836 515.729C550.43 515.231 551.023 514.732 551.616 514.234ZM549.318 514.858C549.277 514.893 549.235 514.928 549.194 514.963C545.682 517.91 542.169 520.834 538.654 523.735C536.169 524.398 533.615 525.016 530.994 525.589C531.396 525.357 531.797 525.126 532.199 524.894C537.953 521.571 543.661 518.225 549.318 514.858ZM345.813 238.554L345.039 239.014C345.831 238.838 346.623 238.663 347.417 238.489C346.882 238.51 346.347 238.532 345.813 238.554ZM332.355 242.927C334.618 242.399 336.887 241.876 339.164 241.358C338.034 242.036 336.906 242.715 335.78 243.395C334.637 243.237 333.496 243.081 332.355 242.927ZM342.29 240.652C340.64 241.637 338.994 242.625 337.353 243.614C338.308 243.748 339.265 243.884 340.223 244.021C345.017 242.069 349.846 240.135 354.706 238.221C354.173 238.239 353.64 238.257 353.107 238.276C349.485 239.054 345.879 239.846 342.29 240.652ZM335.993 244.434C333.712 245.812 331.439 247.193 329.175 248.577C332.232 247.3 335.303 246.031 338.388 244.77C337.589 244.657 336.791 244.545 335.993 244.434ZM314.595 255.859C315.565 255.439 316.536 255.021 317.509 254.603C317.066 254.879 316.623 255.156 316.18 255.433C315.849 255.64 315.518 255.847 315.187 256.054L314.595 255.859ZM313.211 256.458C313.503 256.553 313.794 256.648 314.085 256.744C304.741 262.605 295.549 268.517 286.516 274.47C284.503 273.367 282.49 272.277 280.479 271.201C291.173 266.199 302.089 261.28 313.211 256.458ZM286.564 275.637C275.28 283.081 264.248 290.589 253.482 298.144C254.681 299.134 255.88 300.131 257.076 301.136C307.306 343.292 345.737 389.89 367.257 431.168C378.016 451.805 384.56 471.136 386.223 487.931C387.086 496.653 386.634 504.703 384.764 511.899C397.34 513.319 409.732 514.456 421.901 515.316C443.636 514.713 464.869 513.472 485.456 511.646C491.531 499.28 491.612 484.143 486.414 467.194C480.853 449.065 469.266 428.912 452.609 407.976C419.297 366.106 365.777 321.189 299.939 283.169C295.478 280.593 291.019 278.082 286.564 275.637ZM212.646 320.598C213.697 321.85 214.737 323.104 215.769 324.36C203.764 333.43 192.162 342.534 180.988 351.645C178.593 347.007 176.059 342.366 173.386 337.735C172.056 335.432 170.707 333.156 169.34 330.911C180.427 324.041 191.962 317.226 203.914 310.491C206.849 313.79 209.762 317.16 212.646 320.598ZM172.52 338.235C175.221 342.915 177.78 347.605 180.196 352.291C169.055 361.391 158.342 370.496 148.083 379.575C146.108 371.025 143.54 362.321 140.361 353.585C139.981 352.539 139.594 351.499 139.201 350.465C148.57 344.091 158.341 337.741 168.49 331.438C169.852 333.674 171.195 335.941 172.52 338.235ZM139.422 353.927C142.653 362.808 145.25 371.652 147.23 380.33C135.926 390.358 125.176 400.354 115.017 410.278C117.661 397.215 117.934 382.542 115.342 367.396C122.709 361.935 130.384 356.481 138.351 351.044C138.713 352 139.07 352.961 139.422 353.927ZM114.441 368.065C117.018 383.49 116.598 398.388 113.731 411.538C112.61 412.637 111.496 413.736 110.39 414.834C103.128 409.042 96.1647 403.207 89.521 397.352C91.5924 393.146 92.9935 388.693 93.7244 384.153C94.0358 383.9 94.3479 383.647 94.6608 383.394C100.976 378.286 107.574 373.173 114.441 368.065ZM113.319 413.345C112.602 414.05 111.889 414.756 111.178 415.461C111.62 415.812 112.063 416.163 112.507 416.514C112.794 415.47 113.064 414.413 113.319 413.345ZM87.589 400.881C94.4947 405.921 101.75 410.929 109.333 415.885C106.483 418.724 103.682 421.556 100.931 424.381C94.8664 418.51 89.0363 412.598 83.4531 406.666C84.996 404.822 86.3746 402.887 87.589 400.881ZM110.189 416.443C107.292 419.328 104.445 422.206 101.65 425.075C103.524 426.883 105.42 428.686 107.339 430.485C107.673 429.786 107.999 429.078 108.316 428.361C109.797 425.008 111.085 421.452 112.165 417.724C111.504 417.297 110.845 416.871 110.189 416.443ZM82.7995 407.43C88.3705 413.347 94.186 419.244 100.234 425.097C99.2128 426.149 98.1988 427.199 97.1918 428.247C94.0225 426.509 90.9196 424.758 87.8851 422.995C83.2805 420.319 78.8339 417.615 74.5518 414.888C76.6813 413.378 78.7128 411.669 80.6205 409.761C81.3783 409.003 82.1046 408.226 82.7995 407.43ZM100.953 425.792C99.996 426.777 99.0453 427.761 98.1008 428.745C100.715 430.171 103.374 431.587 106.077 432.995C106.35 432.477 106.617 431.954 106.88 431.425C104.88 429.553 102.905 427.675 100.953 425.792ZM87.3827 423.859C90.3491 425.583 93.3806 427.295 96.4753 428.995C92.7803 432.854 89.1801 436.699 85.677 440.525C83.4396 437.976 81.2164 435.386 79.0094 432.755C75.1439 428.148 71.4088 423.512 67.8074 418.861C69.8187 417.894 71.7752 416.776 73.6597 415.505C78.0635 418.317 82.6404 421.103 87.3827 423.859ZM97.3835 429.492C93.6026 433.439 89.9212 437.369 86.3414 441.281C88.7558 444.019 91.1865 446.71 93.6309 449.351C98.2563 445.201 102.284 439.966 105.605 433.876C102.818 432.425 100.077 430.963 97.3835 429.492ZM78.2435 433.398C80.479 436.063 82.7313 438.687 84.9983 441.268C82.2385 444.292 79.5396 447.304 76.9024 450.305C75.175 452.27 73.4741 454.23 71.7999 456.184C69.2187 454.865 66.7 453.53 64.2453 452.178C58.2823 444.511 52.4976 436.313 46.9753 427.638C48.2832 426.208 49.6173 424.775 50.9773 423.34C56.4239 422.941 61.8139 421.593 66.8786 419.295C70.5309 424.017 74.3204 428.722 78.2435 433.398ZM77.6533 450.965C75.9829 452.865 74.3373 454.761 72.7169 456.651C74.0596 457.331 75.4188 458.007 76.7946 458.678C82.6956 457.095 88.0956 454.124 92.8793 450.011C90.4595 447.396 88.0532 444.733 85.6629 442.023C82.933 445.015 80.2628 447.996 77.6533 450.965ZM65.8061 454.167C67.5506 455.108 69.326 456.041 71.1317 456.966C70.6052 457.582 70.0814 458.199 69.5603 458.814C68.302 457.289 67.0504 455.74 65.8061 454.167ZM72.0478 457.433C71.4309 458.155 70.8176 458.876 70.2081 459.597L70.3945 459.821C71.4428 459.725 72.4909 459.585 73.5379 459.4C74.1241 459.297 74.7058 459.18 75.2829 459.05C74.1941 458.514 73.1157 457.975 72.0478 457.433ZM68.6079 459.942L68.9044 459.59C67.1163 457.425 65.3416 455.213 63.5825 452.954C54.3716 447.873 46.0543 442.562 38.7115 437.05C37.4673 438.529 36.2525 440.005 35.0672 441.477C37.513 445.291 40.0429 448.936 42.6418 452.398C50.8706 457.624 59.725 460.337 68.6079 459.942ZM59.3405 471.246C62.0555 467.841 64.857 464.415 67.7431 460.972C59.7206 461.143 51.7671 458.858 44.2972 454.566C49.1217 460.78 54.1678 466.368 59.3405 471.246ZM41.9499 453.142C47.2903 460.24 52.922 466.575 58.7156 472.031C51.6089 480.98 45.1009 489.787 39.2225 498.419C28.1194 491.34 19.2919 483.464 13.0001 474.839C14.591 471.703 16.3453 468.534 18.2596 465.337C22.1896 458.773 26.7913 452.092 32.0323 445.32C35.1954 448.323 38.5153 450.945 41.9499 453.142ZM12.4962 475.843C18.8523 484.421 27.6696 492.236 38.6605 499.246C27.0196 516.435 17.8859 532.92 11.5043 548.427C8.88652 544.549 6.7737 540.433 5.18909 536.078C-1.28715 518.281 1.55129 497.859 12.4962 475.843ZM531.699 524.028C537.053 520.936 542.365 517.825 547.635 514.696C541.169 515.421 534.545 516.04 527.775 516.552C517.988 520.374 508.071 524.115 498.033 527.769C495.347 528.747 492.665 529.714 489.985 530.671C503.691 530.03 516.369 528.555 527.836 526.251C529.123 525.513 530.411 524.772 531.699 524.028ZM585.268 492.775C581.795 494.978 578.3 497.173 574.784 499.362C578.387 498.673 581.956 497.964 585.49 497.237C586.973 495.395 588.306 493.48 589.484 491.49C588.083 491.921 586.678 492.349 585.268 492.775ZM592.333 488.274L592.338 488.265C628.727 464.898 662.678 440.805 693.689 416.557C695.276 422.985 695.697 429.344 694.882 435.589C663.58 453.831 629.192 471.559 592.333 488.274ZM695.967 434.955C696.687 428.678 696.188 422.305 694.551 415.882C723.306 393.355 749.52 370.699 772.788 348.372C778.107 357.526 780.892 366.994 780.892 376.676C780.892 377.223 780.883 377.769 780.866 378.314C756.183 397.371 727.669 416.425 695.967 434.955ZM781.892 376.676C781.892 366.712 779.004 357.006 773.53 347.66C789.2 332.588 803.524 317.669 816.38 303.043C823.231 295.25 829.665 287.538 835.664 279.931C840.507 286.94 843.697 294.432 845.098 302.381C846.035 307.696 846.151 313.093 845.481 318.55C831.047 335.357 812.874 352.624 791.441 369.96C788.324 372.481 785.138 375.003 781.885 377.525C781.89 377.243 781.892 376.96 781.892 376.676ZM878.693 212.028C869.141 232.957 854.824 255.53 836.311 279.108C841.324 286.293 844.636 294 846.083 302.207C846.954 307.148 847.128 312.15 846.637 317.196C855.048 307.278 862.15 297.524 867.842 288.017C883.426 261.987 888.407 237.873 880.912 217.276C880.261 215.486 879.521 213.737 878.693 212.028ZM12.3442 473.925C7.30544 466.772 3.99585 459.112 2.56103 450.973C0.293887 438.113 2.83421 424.776 9.67997 411.262C14.706 423.757 21.56 434.53 29.5223 442.823C30.1113 443.436 30.7065 444.036 31.3076 444.622C26.0164 451.453 21.3698 458.196 17.4017 464.823C15.5707 467.882 13.8837 470.916 12.3442 473.925ZM32.6489 444.526C35.0762 446.837 37.5928 448.917 40.1794 450.746C38.2105 448.033 36.2842 445.216 34.4072 442.299C33.8135 443.043 33.2274 443.785 32.6489 444.526ZM33.8382 441.41C33.1918 442.217 32.5542 443.023 31.9255 443.828C31.3597 443.275 30.799 442.708 30.2436 442.13C22.2073 433.76 15.2972 422.813 10.2874 410.083C10.5222 409.636 10.7618 409.188 11.006 408.74C14.5858 414.238 19.0638 419.605 24.3766 424.822C27.3464 430.64 30.513 436.18 33.8382 441.41ZM37.9125 436.447C36.7496 437.83 35.6121 439.21 34.5002 440.587C31.7565 436.255 29.1214 431.708 26.6169 426.966C28.2071 428.451 29.8653 429.923 31.5901 431.382C33.6068 433.088 35.715 434.777 37.9125 436.447ZM39.3575 436.285C46.1037 441.345 53.6819 446.239 62.0299 450.944C56.6022 443.854 51.3301 436.326 46.2774 428.404C43.8808 431.041 41.5735 433.669 39.3575 436.285ZM45.7214 427.529C43.2382 430.257 40.8498 432.975 38.5582 435.681C36.3596 434.011 34.2515 432.324 32.236 430.619C29.7449 428.511 27.3961 426.379 25.1935 424.222C23.6773 421.246 22.2126 418.197 20.8046 415.079C27.5316 419.776 35.2174 422.5 43.0565 423.251C43.9375 424.689 44.826 426.115 45.7214 427.529ZM49.5227 423.424C48.473 424.539 47.4389 425.652 46.4204 426.764C45.7066 425.635 44.9973 424.498 44.2926 423.353C46.0334 423.473 47.7797 423.497 49.5227 423.424ZM52.0168 422.247C56.8905 421.771 61.7024 420.516 66.2504 418.481C64.7119 416.482 63.1979 414.481 61.7089 412.478C58.3487 415.746 55.1169 419.003 52.0168 422.247ZM61.1079 411.667C57.4244 415.247 53.8936 418.816 50.52 422.369C48.2311 422.517 45.9333 422.494 43.6472 422.3C42.2053 419.939 40.7833 417.544 39.3827 415.118C34.1943 406.129 29.5312 397.104 25.4005 388.141L25.462 388.068C27.1715 386.059 28.968 384.05 30.8499 382.042C37.6108 388.784 45.4248 395.476 54.2032 402.065C56.4406 405.268 58.7426 408.47 61.1079 411.667ZM62.4328 411.775C63.9886 413.87 65.5717 415.962 67.1818 418.051C69.0895 417.145 70.9475 416.1 72.7405 414.916C69.9945 413.15 67.3168 411.374 64.709 409.59C63.944 410.319 63.1852 411.047 62.4328 411.775ZM63.8667 409.011C63.1836 409.663 62.5054 410.314 61.8323 410.965C60.1081 408.633 58.4178 406.298 56.7619 403.963C59.0674 405.653 61.4362 407.336 63.8667 409.011ZM65.4502 408.885C68.1076 410.701 70.8384 412.508 73.6407 414.305C75.8463 412.771 77.9471 411.021 79.9135 409.054C80.6788 408.288 81.4114 407.502 82.1112 406.698C79.8904 404.33 77.7087 401.959 75.5671 399.587C72.0834 402.694 68.7102 405.793 65.4502 408.885ZM74.8978 398.844C71.353 402.005 67.9217 405.16 64.6069 408.307C61.2626 406.005 58.0362 403.689 54.9314 401.362C48.7573 392.517 43.0777 383.668 37.9156 374.894C40.721 372.196 43.6775 369.502 46.7811 366.816C48.8311 368.811 50.9428 370.807 53.1146 372.805C59.8119 381.452 67.086 390.157 74.8978 398.844ZM76.3142 398.923C78.4251 401.261 80.5751 403.598 82.7634 405.932C84.2611 404.132 85.5995 402.244 86.7786 400.288C84.5773 398.674 82.412 397.057 80.2833 395.437C78.945 396.6 77.6219 397.762 76.3142 398.923ZM79.4715 394.818C78.1818 395.939 76.9062 397.06 75.6448 398.18C69.2203 391.035 63.1611 383.88 57.4889 376.756C58.7599 377.884 60.0497 379.011 61.3582 380.139C67.0491 385.043 73.0937 389.942 79.4715 394.818ZM81.0553 394.768C83.0991 396.322 85.1768 397.873 87.2878 399.421C87.6338 398.817 87.9648 398.207 88.2811 397.591C86.5432 396.055 84.8272 394.518 83.1336 392.98C82.4369 393.576 81.7441 394.172 81.0553 394.768ZM82.3883 392.302C81.6689 392.917 80.9537 393.533 80.2427 394.149C73.8198 389.243 67.7355 384.314 62.0109 379.381C59.2042 376.963 56.4842 374.543 53.8534 372.125C52.0707 369.823 50.3291 367.524 48.6293 365.231C49.8278 364.214 51.0474 363.197 52.2877 362.182C61.2994 372.169 71.3669 382.252 82.3883 392.302ZM83.9002 392.325C85.4948 393.773 87.1093 395.22 88.7433 396.665C90.536 392.969 91.8022 389.082 92.5422 385.116C89.598 387.521 86.7169 389.924 83.9002 392.325ZM92.7959 383.619C89.5041 386.297 86.2897 388.973 83.1545 391.647C72.1334 381.602 62.0691 371.527 53.0636 361.549C60.7707 355.288 69.267 349.074 78.4978 342.94C78.9769 343.38 79.449 343.833 79.9135 344.297C90.6238 355.01 94.9179 369.71 92.7959 383.619ZM114.252 366.96C107.227 372.177 100.483 377.399 94.032 382.617L93.9358 382.695C95.7272 368.803 91.2888 354.261 80.6205 343.59C80.2048 343.174 79.7831 342.768 79.3559 342.371C86.1346 337.892 93.3047 333.455 100.845 329.074C107.055 339.956 111.759 352.817 114.246 366.927L114.252 366.96ZM137.984 350.084C130.081 355.473 122.464 360.881 115.149 366.294C112.623 352.259 107.916 339.445 101.71 328.572C103.597 327.481 105.507 326.393 107.439 325.309C112.213 322.63 117.125 319.974 122.169 317.343C128.096 327.3 133.448 338.284 137.984 350.084ZM167.969 330.584C157.877 336.853 148.157 343.166 138.833 349.506C134.304 337.759 128.967 326.815 123.058 316.881C131.574 312.458 140.465 308.107 149.707 303.841C156.044 312.177 162.166 321.114 167.969 330.584ZM203.232 309.728C191.339 316.433 179.858 323.218 168.819 330.057C163.041 320.629 156.947 311.725 150.638 303.413C161.203 298.556 172.223 293.81 183.662 289.197C190.263 295.684 196.802 302.535 203.232 309.728ZM241.024 289.411C228.335 295.918 216.025 302.532 204.125 309.225C197.735 302.071 191.236 295.251 184.674 288.79C196.563 284.013 208.902 279.379 221.652 274.91C228.115 279.531 234.579 284.367 241.024 289.411ZM845.228 320.373C830.909 336.87 813.036 353.779 792.069 370.737C788.74 373.43 785.332 376.125 781.848 378.819C781.419 389.122 777.902 399.139 771.635 408.756C792.664 394.545 809.743 379.926 822.197 365.286C835.055 350.171 842.961 335.063 845.228 320.373ZM780.806 379.623C756.069 398.668 727.523 417.702 695.807 436.207C695.729 436.763 695.64 437.319 695.542 437.875C694.611 443.156 692.827 448.205 690.247 453.013C708.207 444.983 724.92 436.629 740.22 428.045C750.633 422.203 760.389 416.255 769.436 410.232C776.293 400.382 780.191 390.136 780.806 379.623ZM694.7 436.852C663.233 455.157 628.668 472.937 591.627 489.691L591.571 489.8C626.771 478.894 659.396 466.723 688.73 453.689C691.61 448.621 693.573 443.288 694.558 437.701C694.568 437.645 694.577 437.589 694.587 437.533C694.601 437.452 694.615 437.37 694.629 437.288C694.641 437.215 694.653 437.142 694.665 437.069C694.677 436.997 694.688 436.924 694.7 436.852ZM557.378 503.505C549.184 504.885 540.834 506.167 532.341 507.345C518.196 510.869 503.745 514.186 489.027 517.274C502.315 517.072 515.179 516.499 527.55 515.566C537.635 511.628 547.581 507.604 557.378 503.505ZM524.383 516.799C511.397 517.706 497.885 518.222 483.924 518.333C483.754 518.368 483.585 518.403 483.415 518.437L483.126 518.497L482.389 518.647C478.865 523.476 474.366 527.591 468.998 531.011C472.218 531.051 475.394 531.051 478.522 531.01C481.253 530.974 483.948 530.908 486.606 530.811C490.296 529.504 493.991 528.177 497.691 526.83C506.688 523.554 515.587 520.209 524.383 516.799ZM24.5971 328.315C23.364 326.103 22.1777 323.903 21.0391 321.719C20.6116 320.899 20.1909 320.082 19.777 319.266C21.4712 322.072 23.2718 324.902 25.176 327.754C24.982 327.941 24.789 328.128 24.5971 328.315ZM23.8582 329.043C22.5723 326.741 21.3368 324.453 20.1525 322.182C18.6516 319.303 17.2328 316.449 15.8977 313.625C14.5035 315.647 13.2002 317.795 11.9933 320.058C12.39 321.192 12.798 322.331 13.2171 323.474C15.1033 326.812 17.2125 330.183 19.5373 333.582C20.9076 332.057 22.3484 330.544 23.8582 329.043ZM20.1206 334.429C21.466 332.925 22.8815 331.431 24.366 329.949C25.2364 331.494 26.1293 333.045 27.0445 334.602C25.3847 335.411 23.7629 336.325 22.1888 337.342C21.4821 336.369 20.7926 335.398 20.1206 334.429ZM18.8525 334.352C17.595 332.52 16.3993 330.695 15.2666 328.878C16.1152 331.043 17.0023 333.223 17.9275 335.417C18.232 335.061 18.5404 334.706 18.8525 334.352ZM18.3639 336.446C18.7167 336.03 19.0749 335.614 19.4383 335.199C20.0622 336.096 20.7008 336.994 21.354 337.894C20.7439 338.307 20.1413 338.736 19.5469 339.182C19.1461 338.267 18.7517 337.356 18.3639 336.446ZM17.2035 336.272C15.4331 332.095 13.7997 327.966 12.3063 323.895C11.9012 323.177 11.5063 322.461 11.1217 321.746C10.5918 322.806 10.0823 323.889 9.59378 324.995C8.4274 327.635 7.38102 330.401 6.46163 333.277C7.43474 337.608 8.55785 342.013 9.82992 346.476C11.9396 343.023 14.4026 339.62 17.2035 336.272ZM10.2074 347.787C12.3111 344.244 14.7949 340.748 17.6439 337.306C18.0004 338.138 18.3624 338.972 18.7297 339.808C17.2507 340.967 15.8255 342.228 14.4633 343.59C12.971 345.083 11.6006 346.651 10.352 348.283C10.3036 348.118 10.2554 347.953 10.2074 347.787ZM9.12681 347.651C7.91091 343.443 6.82616 339.286 5.87347 335.191C5.34934 336.967 4.87261 338.782 4.44482 340.633C5.39139 343.617 6.58394 346.614 8.01533 349.619C8.37309 348.961 8.74362 348.305 9.12681 347.651ZM8.55449 350.729C8.86428 350.145 9.18436 349.562 9.51465 348.98L9.6052 349.287C9.25119 349.776 8.90781 350.271 8.57506 350.77L8.55449 350.729ZM336.603 545.99C324.232 546.93 309.998 545.486 294.432 541.817C314.708 541.038 335.621 539.622 357.033 537.547C359.049 537.968 361.051 538.369 363.037 538.749C355.69 542.829 346.786 545.216 336.603 545.99ZM290.879 540.947C311.236 540.236 332.252 538.879 353.784 536.853C332.162 532.134 308.92 525.092 284.768 515.835C282.113 521.221 278.576 525.849 274.114 529.594C272.178 531.218 270.109 532.643 267.915 533.872C271.251 535.068 274.546 536.181 277.797 537.209C282.245 538.615 286.609 539.862 290.879 540.947ZM364.365 537.983C363.051 537.736 361.731 537.48 360.404 537.215C362.45 537.011 364.501 536.8 366.556 536.584C365.843 537.069 365.112 537.535 364.365 537.983ZM357.089 536.537C360.78 536.179 364.487 535.801 368.208 535.403C370.75 533.494 373.047 531.329 375.084 528.901C376.761 526.902 378.232 524.76 379.502 522.483C369.305 520.576 358.909 518.382 348.352 515.902C327.213 515.073 306.581 513.641 286.594 511.653C286.163 512.774 285.699 513.866 285.202 514.931C310.44 524.6 334.674 531.842 357.089 536.537ZM365.831 538.256C366.777 537.657 367.697 537.028 368.587 536.368C386.704 534.427 405.155 532.019 423.857 529.13C438.36 530.733 452.274 531.673 465.467 531.952C459.451 535.303 452.447 537.878 444.567 539.69C426.089 543.938 402.846 543.978 376.39 540.018C372.924 539.499 369.403 538.911 365.831 538.256ZM370.094 535.2C386.5 533.419 403.178 531.255 420.068 528.698C407.304 527.197 394.098 525.19 380.538 522.676C379.203 525.115 377.642 527.408 375.85 529.544C374.111 531.617 372.188 533.501 370.094 535.2ZM467.141 530.984C454.614 530.771 441.423 529.954 427.681 528.534C435.065 527.369 442.489 526.13 449.945 524.815C460.384 522.974 470.711 521.016 480.914 518.947C477.283 523.664 472.66 527.673 467.141 530.984ZM449.771 523.83C459.546 522.106 469.222 520.279 478.79 518.356C460.508 518.372 441.482 517.702 421.88 516.317C411.797 516.597 401.608 516.739 391.326 516.739C388.629 516.739 385.939 516.729 383.255 516.71C382.609 518.45 381.868 520.131 381.031 521.75C395.758 524.474 410.064 526.597 423.835 528.122C432.43 526.793 441.078 525.363 449.771 523.83ZM483.818 517.334C497.137 514.598 510.241 511.674 523.102 508.578C511.032 510.127 498.688 511.469 486.102 512.593C485.743 513.3 485.364 513.999 484.966 514.689C484.444 515.593 483.891 516.476 483.309 517.338L483.818 517.334ZM587.01 496.922C588.453 495.043 589.748 493.088 590.889 491.057C625.986 480.221 658.544 468.127 687.858 455.169C683.915 461.634 678.456 467.655 671.613 473.204C670.081 473.771 668.535 474.333 666.976 474.891C643.175 483.407 616.305 490.828 587.01 496.922ZM674.43 472.151C680.743 466.699 685.789 460.798 689.436 454.469C707.887 446.261 725.037 437.71 740.709 428.917C750.299 423.537 759.337 418.065 767.782 412.523C763.145 418.729 757.328 424.772 750.416 430.619C732.146 446.074 706.266 460.121 674.43 472.151ZM272.223 244.243C280.061 246.349 287.97 248.608 295.937 251.019C283.972 254.224 272.248 257.577 260.789 261.065C252.296 256.866 243.849 252.911 235.474 249.206C247.423 247.339 259.685 245.681 272.223 244.243ZM233.648 249.493C242.161 253.235 250.753 257.236 259.393 261.491C246.517 265.429 233.978 269.537 221.811 273.794C213.135 267.602 204.461 261.794 195.844 256.389C208.041 253.855 220.657 251.551 233.648 249.493ZM194.431 256.684C203.13 262.116 211.89 267.96 220.656 274.199C207.984 278.652 195.717 283.268 183.895 288.025C175.515 279.814 167.035 272.188 158.554 265.195C170.041 262.131 182.016 259.288 194.431 256.684ZM157.366 265.513C165.902 272.523 174.441 280.18 182.883 288.433C171.501 293.031 160.534 297.759 150.017 302.598C142.246 292.432 134.155 283.164 125.93 274.924C135.933 271.596 146.426 268.454 157.366 265.513ZM124.87 275.278C133.135 283.525 141.271 292.818 149.086 303.027C139.883 307.278 131.028 311.614 122.543 316.021C115.322 304.02 107.264 293.521 98.7912 284.896C104.229 282.688 109.861 280.542 115.676 278.462C118.692 277.383 121.757 276.321 124.87 275.278ZM97.7895 285.304C106.296 293.91 114.396 304.431 121.655 316.484C116.62 319.111 111.717 321.762 106.95 324.437C105.014 325.523 103.101 326.613 101.21 327.706C97.4236 321.218 93.0995 315.441 88.3872 310.533C83.0838 305.01 77.2808 300.58 71.1937 297.479C79.4327 293.245 88.3145 289.18 97.7895 285.304ZM87.6658 311.226C92.3202 316.073 96.5967 321.786 100.345 328.208C92.7111 332.644 85.4526 337.138 78.5924 341.677C65.0498 329.635 46.1925 326.817 30.1621 333.222C28.8932 331.438 27.6638 329.662 26.4744 327.895C28.3005 326.159 30.2217 324.438 32.236 322.734C42.5359 314.021 55.2543 305.756 70.095 298.047C76.3006 301.1 82.236 305.571 87.6658 311.226ZM30.7612 334.06C46.3211 327.94 64.5558 330.67 77.7299 342.249C68.5435 348.363 60.0797 354.558 52.3938 360.805C47.7453 355.627 43.3829 350.476 39.3211 345.371C36.299 341.573 33.4438 337.8 30.7612 334.06ZM38.5387 345.994C42.6039 351.103 46.9684 356.257 51.6181 361.438C50.4034 362.432 49.2084 363.428 48.0334 364.425C40.7007 354.482 34.1572 344.648 28.4628 335.038C28.9088 334.834 29.3574 334.637 29.8085 334.448C32.5426 338.266 35.4548 342.118 38.5387 345.994ZM27.5544 335.467C33.2887 345.151 39.8812 355.059 47.2704 365.075L47.0569 365.258L46.8229 365.459C37.4379 356.268 29.3788 347.126 22.7799 338.151C24.3277 337.153 25.9224 336.259 27.5544 335.467ZM47.7247 366.003L47.5413 366.16C48.1697 366.771 48.8039 367.383 49.4439 367.994C48.9142 367.289 48.3884 366.585 47.8665 365.881L47.7247 366.003ZM21.9443 338.702C28.5727 347.723 36.659 356.9 46.0631 366.114C43.0337 368.739 40.1431 371.37 37.3954 374.008C30.6767 362.518 24.848 351.163 19.961 340.122C20.6122 339.629 21.2736 339.156 21.9443 338.702ZM19.1468 340.752C24.0591 351.826 29.9126 363.209 36.6548 374.722C34.6336 376.681 32.6914 378.642 30.8299 380.606C27.1953 376.938 23.8768 373.257 20.8887 369.572C18.4744 366.595 16.2767 363.616 14.3025 360.64C13.0034 356.887 11.8041 353.163 10.705 349.477C12.0433 347.669 13.5317 345.936 15.1704 344.297C16.4423 343.025 17.7704 341.844 19.1468 340.752ZM37.1761 375.609C35.2205 377.509 33.34 379.411 31.5361 381.314C37.633 387.396 44.5976 393.442 52.3657 399.414C46.897 391.458 41.8281 383.504 37.1761 375.609ZM20.112 370.202C23.1285 373.922 26.4773 377.635 30.1435 381.334C28.3304 383.267 26.5956 385.202 24.9408 387.139C21.4276 379.445 18.3072 371.8 15.5842 364.264C16.9985 366.245 18.5085 368.224 20.112 370.202ZM13.3987 361.086C16.4611 369.922 20.0729 378.92 24.2263 387.98C20.7178 392.144 17.578 396.314 14.8237 400.48C14.6943 400.13 14.5655 399.779 14.4375 399.427C9.76101 386.575 6.41535 373.801 4.33933 361.495C5.39465 358.484 6.77401 355.561 8.4774 352.78C9.9241 355.547 11.5667 358.317 13.3987 361.086ZM24.6887 388.985C21.152 393.208 18.0029 397.43 15.2566 401.642C16.7449 405.604 18.3252 409.476 19.9886 413.25C26.6818 418.308 34.4469 421.284 42.4015 422.177C41.0895 420.018 39.7942 417.831 38.5168 415.618C33.396 406.747 28.7842 397.838 24.6887 388.985ZM13.4979 399.769C13.7111 400.355 13.9263 400.939 14.1435 401.521C13.3291 402.782 12.5501 404.043 11.8071 405.303C9.11531 401.951 6.9645 398.307 5.35466 394.489C4.71108 391.853 4.14561 389.164 3.66343 386.429C2.81676 381.627 2.26086 376.872 1.97926 372.202C2.26475 369.276 2.83109 366.372 3.67829 363.534C5.78228 375.325 9.03892 387.515 13.4979 399.769ZM14.5826 402.688C13.8527 403.835 13.1528 404.981 12.4832 406.126C13.3289 407.131 14.2246 408.108 15.1703 409.054C16.1865 410.07 17.2386 411.029 18.3224 411.93C17.0211 408.908 15.773 405.826 14.5826 402.688ZM8.36086 402.257C9.25176 403.619 10.221 404.944 11.2686 406.228C11.1612 406.414 11.0547 406.6 10.9489 406.787C10.0175 405.285 9.15442 403.775 8.36086 402.257ZM11.9518 407.045C11.8182 407.279 11.6858 407.513 11.5547 407.747C14.6536 412.58 18.4615 417.321 22.9407 421.955C21.645 419.32 20.3897 416.631 19.1782 413.891C17.5385 412.637 15.9627 411.261 14.4633 409.761C13.5838 408.881 12.7466 407.975 11.9518 407.045ZM9.81017 408.85C10.0012 408.494 10.195 408.138 10.3918 407.782C9.5281 406.412 8.72008 405.034 7.96872 403.648C8.54745 405.412 9.16187 407.147 9.81017 408.85ZM3.21725 360.845C2.63144 362.719 2.14831 364.606 1.77006 366.503C1.71628 362.345 1.88166 358.268 2.254 354.301C2.53498 356.466 2.85596 358.648 3.21725 360.845ZM7.43288 350.713C6.04424 353.378 4.86504 356.071 3.90217 358.79C3.44317 355.818 3.05881 352.876 2.74821 349.969C3.08872 347.44 3.51508 344.961 4.02391 342.541C4.96391 345.259 6.10229 347.984 7.43288 350.713ZM301.694 240.314C282.277 238.351 263.332 237.07 245.009 236.443C253.992 238.496 263.096 240.757 272.298 243.228C281.94 242.124 291.743 241.151 301.694 240.314ZM269.594 243.541C259.504 240.868 249.536 238.448 239.721 236.28C227.367 235.941 215.306 235.902 203.586 236.155C213.507 239.881 223.589 243.985 233.781 248.459C245.431 246.618 257.38 244.975 269.594 243.541ZM231.952 248.751C221.46 244.176 211.089 239.996 200.895 236.218C188.244 236.541 175.999 237.206 164.219 238.203C174.211 243.421 184.373 249.237 194.619 255.623C206.667 253.102 219.126 250.806 231.952 248.751ZM193.204 255.92C182.801 249.467 172.489 243.605 162.359 238.363C150.317 239.423 138.769 240.831 127.78 242.576C137.613 248.921 147.607 256.227 157.603 264.414C169.004 261.359 180.887 258.522 193.204 255.92ZM156.414 264.733C146.312 256.493 136.219 249.159 126.3 242.813C123.989 243.189 121.703 243.579 119.443 243.984C110.915 245.512 102.755 247.252 94.9947 249.198C95.5733 249.582 96.1523 249.972 96.7316 250.368C106.181 256.819 115.743 264.805 125.138 274.134C135.092 270.811 145.532 267.673 156.414 264.733ZM124.076 274.489C114.836 265.353 105.444 257.527 96.1678 251.194C95.3381 250.627 94.5094 250.073 93.682 249.53C81.5701 252.622 70.4498 256.22 60.4476 260.3C70.9812 263.148 81.779 269.462 92.1109 278.56C94.1014 280.312 96.0759 282.169 98.029 284.126C103.601 281.857 109.375 279.654 115.339 277.52C118.208 276.494 121.12 275.483 124.076 274.489ZM97.0248 284.536C95.1834 282.703 93.3237 280.96 91.45 279.31C80.7558 269.894 69.6412 263.55 58.9049 260.937C51.3307 264.101 44.4165 267.548 38.2192 271.266C25.7052 278.773 16.1357 287.373 9.9465 296.974C10.9861 299.785 12.1215 302.635 13.3508 305.521C14.2943 307.426 15.2929 309.348 16.3457 311.283C23.593 301.535 33.0848 294.931 44.1979 292.971C52.965 291.425 61.7722 292.94 70.0802 296.928C78.4214 292.614 87.4205 288.477 97.0248 284.536ZM68.9651 297.508C61.0202 293.839 52.6601 292.494 44.3715 293.956C33.4247 295.886 24.0349 302.461 16.875 312.249C19.5532 317.101 22.5696 322.042 25.9099 327.052C27.7139 325.341 29.6081 323.647 31.5901 321.971C41.7999 313.334 54.355 305.146 68.9651 297.508ZM25.7419 328.597C26.8641 330.262 28.0215 331.934 29.2134 333.613C28.7907 333.793 28.37 333.979 27.9516 334.172C26.9765 332.514 26.0269 330.863 25.103 329.219C25.3146 329.012 25.5275 328.804 25.7419 328.597ZM411.839 515.549C402.834 514.808 393.716 513.918 384.501 512.875C384.231 513.837 383.935 514.783 383.613 515.712C386.178 515.73 388.749 515.739 391.326 515.739C398.207 515.739 405.046 515.675 411.839 515.549ZM382.556 515.704C382.897 514.741 383.21 513.76 383.494 512.761C364.691 510.614 345.485 507.834 326.008 504.399C313.857 502.257 301.893 499.91 290.143 497.376C290.084 497.807 290.023 498.236 289.958 498.662C309.85 505.014 329.433 510.428 348.487 514.906C359.707 515.345 371.07 515.614 382.556 515.704ZM353.631 516.096C363.057 516.419 372.58 516.622 382.189 516.701C381.551 518.38 380.822 520 380.002 521.559C371.349 519.945 362.551 518.124 353.631 516.096ZM343.274 514.69C325.815 510.457 307.934 505.448 289.798 499.661C289.147 503.567 288.203 507.25 286.956 510.684C305.224 512.496 324.032 513.844 343.274 514.69ZM285.929 510.582C287.211 507.101 288.178 503.35 288.836 499.353C281.773 497.09 274.671 494.708 267.541 492.209C247.58 487.383 228.326 482.022 209.929 476.212C209.744 477.446 209.536 478.662 209.307 479.857C229.779 490.926 250.126 500.609 269.969 508.849C275.24 509.466 280.561 510.044 285.929 510.582ZM273.363 510.246C277.402 510.704 281.468 511.139 285.562 511.55C285.159 512.582 284.727 513.589 284.266 514.571C280.651 513.179 277.016 511.737 273.363 510.246ZM266.35 508.418C247.588 500.501 228.401 491.307 209.104 480.884C207.779 487.383 205.803 493.278 203.164 498.447C223.212 502.408 244.34 505.755 266.35 508.418ZM202.681 499.371C223.896 503.57 246.318 507.083 269.714 509.826C274.449 511.791 279.157 513.674 283.83 515.475C281.235 520.715 277.791 525.202 273.472 528.828C271.363 530.597 269.088 532.126 266.659 533.419C246.06 525.925 223.956 515.27 201.321 501.76C201.791 500.983 202.245 500.186 202.681 499.371ZM202.142 498.245C204.841 493.029 206.854 487.035 208.186 480.387C202.627 477.374 197.06 474.259 191.491 471.044C190.21 470.304 188.933 469.561 187.66 468.816C174.254 464.137 161.378 459.221 149.097 454.106C148.191 457.424 147.135 460.59 145.93 463.582C161.352 475.676 176.89 486.582 192.246 496.207C195.514 496.903 198.813 497.582 202.142 498.245ZM194.728 497.753C197.021 498.232 199.33 498.704 201.653 499.167C201.268 499.875 200.871 500.568 200.46 501.245C198.553 500.101 196.642 498.937 194.728 497.753ZM189.401 495.596C174.842 486.359 160.135 475.981 145.535 464.544C142.795 471.088 139.325 476.776 135.151 481.401C152.017 486.666 170.163 491.42 189.401 495.596ZM134.4 482.214C152.202 487.788 171.431 492.793 191.864 497.149C194.56 498.837 197.25 500.486 199.933 502.095C196.309 507.807 191.714 512.377 186.14 515.596C183.893 516.893 181.536 517.943 179.08 518.753C163.537 510.105 147.352 498.835 131.2 485.275C132.307 484.319 133.374 483.298 134.4 482.214ZM123.565 478.691C126.771 479.773 130.027 480.836 133.334 481.879C132.397 482.847 131.427 483.762 130.423 484.621C128.136 482.69 125.849 480.713 123.565 478.691ZM432.202 515.982C450.165 515.313 467.766 514.208 484.922 512.697C484.658 513.199 484.384 513.696 484.1 514.189C483.475 515.272 482.804 516.324 482.09 517.345C466.014 517.433 449.346 516.985 432.202 515.982ZM586.042 498.144C582.385 502.62 577.863 506.651 572.552 510.237C574.251 509.954 575.936 509.663 577.606 509.363C610.957 503.387 638.682 494.168 658.83 482.081C662.497 479.882 665.91 477.588 669.06 475.204C668.868 475.273 668.676 475.343 668.484 475.412C668.094 475.553 667.704 475.693 667.313 475.833C643.148 484.479 615.835 491.995 586.042 498.144ZM12.4419 305.939C11.2002 303.429 10.053 300.946 9.00245 298.49C8.16522 299.883 7.39807 301.297 6.70229 302.73C7.19961 304.654 7.73373 306.598 8.30431 308.56C9.2802 311.916 10.3625 315.324 11.5495 318.778C12.7461 316.603 14.0336 314.533 15.4074 312.581C14.3658 310.348 13.377 308.133 12.4419 305.939ZM37.7048 270.408C43.5921 266.876 50.1164 263.591 57.2288 260.559C49.5513 258.964 42.0901 259.31 35.1409 261.84C22.8635 266.309 13.7436 277.028 8.16587 291.921C8.5955 293.205 9.04614 294.499 9.51757 295.802C15.8203 286.294 25.3759 277.804 37.7048 270.408ZM58.8226 259.888C68.9512 255.677 80.2365 251.97 92.5423 248.791C77.2346 238.95 62.3915 233.301 49.1988 232.593C47.1593 233.293 45.1771 234.028 43.2539 234.8C23.5538 242.699 10.102 254.303 4.55709 269.541C4.47308 269.772 4.391 270.003 4.31084 270.235C4.0048 271.536 3.72638 272.863 3.47554 274.217C4.46053 279.419 5.86469 284.83 7.67206 290.419C13.3588 275.926 22.4867 265.382 34.7989 260.9C42.376 258.142 50.5047 257.917 58.8226 259.888ZM119.267 242.999C121.171 242.658 123.093 242.328 125.033 242.007C117.437 237.205 109.948 232.986 102.64 229.386C98.5748 227.384 94.5664 225.574 90.6281 223.962C76.1267 225.499 63.0479 228.106 51.6609 231.774C64.7028 233.035 79.1335 238.861 93.8611 248.453C101.912 246.409 110.393 244.59 119.267 242.999ZM126.517 241.765C137.382 240.012 148.796 238.589 160.697 237.508C149.205 231.627 137.957 226.549 127.089 222.318C124.414 222.296 121.77 222.302 119.159 222.336C109.919 222.456 101.09 222.928 92.7208 223.748C96.1293 225.185 99.5858 226.767 103.082 228.489C110.727 232.255 118.567 236.694 126.517 241.765ZM162.561 237.342C174.066 236.336 186.02 235.647 198.364 235.287C186.926 231.111 175.717 227.446 164.815 224.303C152.702 223.173 141.037 222.524 129.901 222.352C140.486 226.573 151.413 231.583 162.561 237.342ZM201.062 235.213C211.934 234.939 223.103 234.917 234.532 235.155C212.106 230.38 190.516 226.939 170.135 224.826C180.218 227.855 190.547 231.321 201.062 235.213ZM277.346 494.523C281.26 495.424 285.199 496.305 289.162 497.164C289.109 497.563 289.053 497.959 288.993 498.354C285.122 497.112 281.239 495.835 277.346 494.523ZM258.034 488.812L258.152 488.855C241.578 484.657 225.523 480.091 210.075 475.209C210.317 473.479 210.518 471.713 210.678 469.913C225.914 476.551 241.729 482.876 258.034 488.812ZM209.712 469.491C209.555 471.334 209.354 473.138 209.11 474.903C201.967 472.636 194.954 470.301 188.082 467.904C175.284 460.405 162.965 452.649 151.184 444.711C151.337 443.842 151.48 442.964 151.615 442.079C151.661 441.777 151.706 441.474 151.749 441.17C169.881 451.052 189.273 460.553 209.712 469.491ZM208.966 475.907C203.419 474.147 197.95 472.347 192.564 470.508C197.842 473.549 203.118 476.5 208.386 479.358C208.598 478.226 208.792 477.075 208.966 475.907ZM150.99 445.786C161.33 452.743 172.081 459.559 183.203 466.183C171.486 462.005 160.189 457.646 149.357 453.131C149.978 450.757 150.522 448.306 150.99 445.786ZM107.642 432.138C108.975 433.382 110.319 434.624 111.673 435.863C110.089 435.064 108.52 434.261 106.964 433.455C107.194 433.02 107.42 432.581 107.642 432.138ZM9.96831 350.502C10.6246 352.68 11.3156 354.87 12.0411 357.071C10.9794 355.312 9.99698 353.555 9.09515 351.8C9.37802 351.363 9.66908 350.931 9.96831 350.502ZM1.8423 326.854C2.06466 330.781 2.74762 334.743 3.87401 338.729C4.34174 336.858 4.85983 335.024 5.42671 333.232C4.21097 327.79 3.23096 322.463 2.48884 317.277C2.16747 320.387 1.95142 323.583 1.8423 326.854ZM6.04042 331.364C4.70538 325.169 3.68052 319.13 2.96887 313.288C3.42619 311.288 4.01108 309.321 4.72063 307.388C6.24252 311.744 8.19166 316.175 10.5477 320.666C9.89452 321.941 9.27136 323.25 8.6791 324.591C7.71735 326.768 6.83655 329.028 6.04042 331.364ZM4.21661 305.9L4.20711 305.924L4.21377 305.891L4.21661 305.9ZM4.63652 303.912C4.69268 304.097 4.74964 304.282 4.80742 304.467C5.07316 303.849 5.3516 303.235 5.64262 302.625C5.52047 302.148 5.40057 301.673 5.2829 301.199C5.05676 302.093 4.84128 302.997 4.63652 303.912ZM10.0536 317.483C8.13748 313.574 6.54264 309.721 5.28047 305.934C5.52161 305.335 5.77483 304.74 6.04006 304.149C6.45138 305.701 6.88616 307.264 7.34421 308.839C8.17165 311.684 9.07514 314.567 10.0536 317.483ZM2.36053 345.91C2.66766 344.137 3.01764 342.39 3.4093 340.674C2.7398 338.532 2.19462 336.395 1.77678 334.265C1.83372 338.065 2.02754 341.952 2.36053 345.91ZM6.32489 301.245C6.99882 299.931 7.73183 298.634 8.52281 297.355C8.10044 296.343 7.69469 295.335 7.30569 294.333C6.77272 295.904 6.27718 297.518 5.81948 299.173C5.98309 299.861 6.15157 300.552 6.32489 301.245ZM4.56045 286.446C3.8261 284.051 3.19531 281.69 2.67057 279.364C2.61721 279.778 2.5662 280.195 2.51753 280.613C3.11518 285.918 4.06425 291.448 5.35533 297.17C5.79071 295.708 6.25655 294.277 6.75264 292.881C5.94167 290.71 5.2104 288.565 4.56045 286.446ZM3.35302 269.945C3.2111 270.357 3.07512 270.77 2.94506 271.185C2.62651 269.197 2.37166 267.241 2.18147 265.32C2.07547 264.249 1.98955 263.189 1.92388 262.141C2.00489 260.783 2.11621 259.448 2.25806 258.137C2.72936 253.779 3.53724 249.68 4.68923 245.871C5.54442 243.546 6.58994 241.306 7.8299 239.158C14.614 227.405 26.674 219.329 42.8875 214.795C46.438 214.452 50.163 214.415 54.0432 214.675C64.5882 215.38 76.263 218.276 88.6621 223.171C73.8731 224.847 60.5744 227.65 49.0626 231.582C40.3425 231.143 32.2954 232.83 25.2626 236.891C14.1536 243.306 6.9093 254.876 3.35302 269.945ZM1.86486 289.058C1.91901 287.725 1.99419 286.411 2.09043 285.114C2.7495 289.655 3.65077 294.343 4.78789 299.156C4.5364 300.074 4.29652 301.005 4.0683 301.946C2.86185 297.548 2.12117 293.246 1.86486 289.058ZM1.77713 296.447C2.23466 298.918 2.84498 301.421 3.60401 303.95C3.20882 305.737 2.85434 307.562 2.5409 309.424C2.40836 308.091 2.29265 306.77 2.19381 305.461C1.96196 302.389 1.82298 299.382 1.77713 296.447ZM105.328 412.04C99.3684 408.059 93.6217 404.048 88.0999 400.016C88.4313 399.44 88.7494 398.859 89.0544 398.273C94.2856 402.879 99.7135 407.472 105.328 412.04ZM159.641 222.844C144.213 218.592 129.437 215.409 115.54 213.329C108.497 212.275 101.682 211.504 95.1243 211.021C99.9395 212.204 104.874 213.594 109.913 215.187C115.577 216.978 121.373 219.024 127.281 221.32C137.623 221.41 148.432 221.918 159.641 222.844ZM124.452 221.306C119.416 219.398 114.464 217.675 109.612 216.141C102.539 213.905 95.678 212.071 89.0726 210.653C73.7093 209.923 59.8816 210.858 47.9958 213.514C49.9902 213.483 52.0294 213.538 54.11 213.677C65.275 214.424 77.6532 217.593 90.7734 222.941C99.7218 222.001 109.201 221.466 119.146 221.336C120.9 221.313 122.669 221.303 124.452 221.306ZM46.418 232.517C45.2184 232.956 44.0396 233.407 42.8817 233.871C25.7403 240.745 13.1608 250.455 6.3902 263.02C10.322 251.664 16.7674 242.952 25.7625 237.757C31.9011 234.212 38.8646 232.515 46.418 232.517ZM1.982 251.582C2.43877 249.514 3.0252 247.499 3.74419 245.542C6.44063 236.647 10.9969 229.252 17.5413 223.76C24.3955 218.007 32.926 214.765 42.7024 213.808C44.15 213.405 45.6291 213.029 47.1391 212.682C57.6685 210.261 69.7094 209.199 82.9757 209.449C71.2833 207.346 60.4753 206.625 50.806 207.36C34.152 208.625 20.9178 214.206 12.3253 224.449C6.21756 231.729 2.83598 240.91 1.982 251.582ZM9.64888 234.552C15.8236 226.165 24.9522 219.943 36.4788 215.788C29.5031 217.307 23.3462 220.193 18.184 224.526C14.8083 227.359 11.9678 230.718 9.64888 234.552ZM265.444 534.039C245.025 526.538 223.164 515.963 200.794 502.61C197.092 508.452 192.383 513.146 186.64 516.462C184.597 517.642 182.468 518.621 180.262 519.406C183.205 521.022 186.124 522.543 189.015 523.967C206.637 532.647 223.183 537.713 237.612 538.678C248.166 539.384 257.571 537.896 265.444 534.039ZM130.424 485.929C146.376 499.335 162.371 510.519 177.762 519.162C160.471 524.191 138.51 517.709 115.735 502.159C112.402 499.884 109.054 497.416 105.704 494.763C110.289 494.767 114.763 494.018 119.06 492.454C123.214 490.942 127.005 488.74 130.424 485.929Z" fill="url(#paint0_linear_2818_402)"/>
<defs>
<linearGradient id="paint0_linear_2818_402" x1="316.854" y1="238.014" x2="549.572" y2="515.3" gradientUnits="userSpaceOnUse">
<stop stop-color="#fff"/>
<stop offset="1" stop-color="#1E1E1E"/>
</linearGradient>
</defs>
</svg>
